<svg xmlns="http://www.w3.org/2000/svg" viewBox="0 0 64 64" role="img" aria-label="Ghost Mail">
  <defs>
    <linearGradient id="gm" x1="12" y1="8" x2="52" y2="56" gradientUnits="userSpaceOnUse">
      <stop stop-color="#A78BFA"/>
      <stop offset="1" stop-color="#7C3AED"/>
    </linearGradient>
  </defs>
  <!-- Soft ground glow -->
  <ellipse cx="32" cy="56" rx="18" ry="4" fill="#7C3AED" opacity="0.2"/>
  <!-- Ghost body -->
  <path fill="url(#gm)" d="M32 6c-12.5 0-22 9.2-22 22.5V48c0 1.8 1.3 3 2.8 3 1.2 0 2.2-.6 3.2-1.6.9 1.1 2.1 1.8 3.5 1.8 1.3 0 2.5-.7 3.4-1.7.9 1 2.1 1.7 3.5 1.7s2.6-.7 3.5-1.7c.9 1 2.1 1.7 3.5 1.7 1.4 0 2.6-.7 3.5-1.8 1 .1 2.1 1.6 3.2 1.6 1.5 0 2.8-1.2 2.8-3V28.5C54 15.2 44.5 6 32 6z"/>
  <!-- Envelope flap on chest -->
  <path fill="#0B0B0F" opacity="0.35" d="M22 28h20c1.1 0 2 .9 2 2v10c0 1.1-.9 2-2 2H22c-1.1 0-2-.9-2-2V30c0-1.1.9-2 2-2z"/>
  <path fill="#EDE9FE" d="M22 28l10 7 10-7v2.2L32 37.5 22 30.2V28z"/>
  <!-- Eyes -->
  <circle cx="25.5" cy="22" r="3.2" fill="#0B0B0F"/>
  <circle cx="38.5" cy="22" r="3.2" fill="#0B0B0F"/>
  <circle cx="26.4" cy="21.2" r="1.1" fill="#F5F3FF"/>
  <circle cx="39.4" cy="21.2" r="1.1" fill="#F5F3FF"/>
</svg>
